<?xml version="1.0" standalone="no"?>
<!DOCTYPE svg PUBLIC "-//W3C//DTD SVG 20010904//EN"
 "http://www.w3.org/TR/2001/REC-SVG-20010904/DTD/svg10.dtd">
<svg version="1.0" xmlns="http://www.w3.org/2000/svg"
 width="2400.000000pt" height="2400.000000pt" viewBox="0 0 2400.000000 2400.000000"
 preserveAspectRatio="xMidYMid meet">
<metadata>
Created by potrace 1.11, written by Peter Selinger 2001-2013
</metadata>
<g transform="translate(0.000000,2400.000000) scale(0.100000,-0.100000)"
fill="#000000" stroke="none">
<path d="M3750 17880 l0 -3520 -290 0 -290 0 0 -5880 0 -5880 2980 0 2980 0 2
293 3 292 533 3 532 2 0 -295 0 -295 2100 0 2100 0 0 295 0 295 250 0 250 0 0
-295 0 -295 1800 0 1800 0 0 295 0 295 590 0 590 0 0 290 0 290 285 0 285 0 0
290 0 290 290 0 290 0 0 2075 0 2075 -290 0 -290 0 0 280 0 280 -285 0 -285 0
0 295 0 295 -590 0 -590 0 0 275 0 275 875 0 875 0 0 285 0 285 290 0 290 0 0
895 0 895 -290 0 -290 0 0 330 0 330 -285 0 -285 0 0 280 0 280 -590 0 -590 0
0 250 0 250 280 0 280 0 0 310 0 310 310 0 310 0 0 915 0 915 -310 0 -310 0 0
285 0 285 -280 0 -280 0 0 280 0 280 -600 0 -600 0 0 280 0 280 1190 0 1190 0
0 885 0 885 -307 2 -308 3 -3 308 -2 307 -590 0 -590 0 0 295 0 295 -1490 0
-1490 0 0 -295 0 -295 -590 0 -590 0 -2 -307 -3 -308 -282 -3 -283 -2 0 -1195
0 -1195 285 0 285 0 0 -285 0 -285 590 0 590 0 0 -250 0 -250 -875 0 -875 0 0
-915 0 -915 285 0 285 0 -2 -267 -3 -268 -532 -3 -533 -2 0 3520 0 3520 -1225
0 -1225 0 0 -295 0 -295 -280 0 -280 0 -2 -597 -3 -598 -282 -3 -283 -2 0
-565 0 -565 -310 0 -310 0 0 -590 0 -590 -270 0 -270 0 0 590 0 590 -280 0
-280 0 0 565 0 565 -290 0 -290 0 0 600 0 600 -310 0 -310 0 0 295 0 295
-1200 0 -1200 0 0 -3520z m7116 2900 l564 0 0 -3225 0 -3225 -305 0 -305 0 0
2060 0 2060 -295 0 -295 0 0 -590 0 -590 -282 -2 -283 -3 0 -600 0 -600 -283
3 -282 3 0 -566 1 -567 -308 -1 -308 -2 -3 -302 -2 -303 -295 0 -295 0 -2 303
-3 302 -285 0 -285 0 3 568 3 568 -293 -3 -293 -3 0 600 0 600 -307 3 -308 2
0 590 0 590 -285 0 -285 0 0 295 0 295 -282 -2 -283 -3 -3 -2352 -2 -2353
-305 0 -305 0 0 3225 0 3225 590 0 590 0 0 -310 0 -310 280 0 280 0 0 -565 0
-565 310 0 310 0 0 -600 0 -600 290 0 290 0 0 -565 0 -565 285 0 285 0 0 -595
0 -595 303 2 302 3 0 875 0 875 308 -3 307 -3 0 595 0 596 285 0 286 0 -3 565
-3 565 288 0 288 0 -1 598 c0 328 -1 601 0 606 0 5 14 6 31 2 17 -3 285 -6
595 -6z m5260 0 l1134 0 0 -305 0 -305 -1160 0 -1160 0 0 273 c0 149 -3 290
-7 311 l-6 39 33 -6 c18 -4 543 -7 1166 -7z m-1763 -620 l567 0 0 -290 0 -290
-280 0 -280 0 -2 -872 -3 -873 -307 -3 -308 -2 0 1171 0 1171 23 -6 c12 -3
277 -6 590 -6z m4087 -560 l0 -560 -300 0 -300 0 0 270 0 270 -296 0 -296 0 6
23 c3 12 6 142 6 290 l0 267 590 0 590 0 0 -560z m-1220 -585 l0 -535 -840 0
-840 0 0 535 0 535 840 0 840 0 0 -535z m-530 -1465 l0 -280 -882 -2 c-486 -2
-883 -3 -883 -3 0 0 1 127 3 283 l3 282 880 0 879 0 0 -280z m1150 -570 l0
-280 300 0 300 0 0 -880 0 -880 -300 0 -300 0 0 -300 0 -300 -1720 -2 c-946
-1 -1729 -2 -1741 -2 -21 -1 -21 1 -19 302 l1 303 -311 -3 -310 -3 0 563 0
562 564 0 c310 0 576 3 592 6 l29 6 -3 -571 -3 -571 1171 0 1171 0 -3 293 -3
292 293 -3 292 -3 0 281 0 281 -292 -3 -293 -3 3 318 3 317 -285 0 -286 0 0
280 0 280 575 0 575 0 0 -280z m-1180 -630 l0 -320 280 0 280 0 0 -240 0 -240
-840 0 -840 0 0 275 0 275 -295 0 -295 0 0 285 0 285 855 0 855 0 0 -320z
m-9970 -885 l0 -565 285 0 285 0 -2 -267 -3 -268 -557 -3 -558 -2 0 835 0 835
275 0 275 0 0 -565z m3500 -270 l0 -835 -280 0 -280 0 0 -290 0 -290 -250 0
-250 0 0 153 c0 85 -3 337 -7 560 l-6 407 286 0 287 0 0 565 0 565 250 0 250
0 0 -835z m4130 -1165 l0 -250 -275 0 -275 0 0 250 0 250 275 0 275 0 0 -250z
m4120 -565 l0 -286 600 3 600 3 0 -327 0 -328 285 0 285 0 -2 -262 -3 -263
-282 -3 -283 -2 0 -280 0 -280 -600 0 -600 0 0 280 0 280 -1760 0 -1760 0 0
-280 0 -280 -280 0 -280 0 0 -920 0 -920 -310 0 -310 0 0 315 0 315 -280 0
-280 0 0 1150 0 1150 280 0 280 0 0 325 0 325 311 0 310 0 -3 285 -3 285 2043
0 2042 0 0 -285z m-630 -2380 l0 -315 300 0 300 0 -2 -252 -3 -253 -557 -3
-558 -2 0 570 0 570 260 0 260 0 0 -315z m-10550 -2340 l0 -1455 290 0 290 0
0 -570 0 -570 -850 0 -850 0 0 2025 0 2025 560 0 560 0 0 -1455z m5300 1140
l0 -315 290 0 290 0 0 -285 0 -285 285 0 285 0 0 -285 0 -285 310 0 310 0 0
-250 0 -250 -595 0 -595 0 0 -290 0 -290 -290 0 -290 0 0 -300 0 -300 -270 0
-270 0 0 1725 0 1725 270 0 270 0 0 -315z m5880 -570 l0 -286 600 3 600 3 0
-288 0 -288 285 3 285 3 0 -1172 0 -1173 -285 0 -285 0 0 -285 0 -285 -310 0
-310 0 0 -300 0 -300 -290 0 -290 0 -2 -282 -3 -283 -1462 -3 -1463 -2 0 285
0 285 -575 0 -575 0 0 300 0 300 -310 0 -310 0 0 585 0 585 -280 0 -280 0 0
269 c0 148 -3 283 -6 300 l-6 31 876 0 876 0 2 -302 3 -303 287 -3 288 -2 2
-298 3 -297 1168 -3 1167 -2 0 302 0 303 300 -3 300 -3 0 595 0 596 -300 0
-300 0 0 285 0 285 -290 0 -290 0 0 565 0 565 590 0 590 0 0 -285z m-632
-2297 l2 -268 -545 0 -545 0 0 263 c0 145 3 267 7 270 3 4 248 6 542 5 l536
-3 3 -267z"/>
</g>
</svg>
